<svg xmlns="http://www.w3.org/2000/svg" viewBox="0 0 32 32" role="img" aria-label="Snapptools">
  <defs>
    <linearGradient id="g" x1="0%" y1="0%" x2="100%" y2="100%">
      <stop offset="0%" style="stop-color:#5eead4"/>
      <stop offset="50%" style="stop-color:#a78bfa"/>
      <stop offset="100%" style="stop-color:#7c3aed"/>
    </linearGradient>
  </defs>
  <rect width="32" height="32" rx="6" fill="#121218"/>
  <rect x="4" y="4" width="10" height="10" rx="1" fill="none" stroke="url(#g)" stroke-width="1.5"/>
  <rect x="6" y="6" width="6" height="6" rx="0.5" fill="url(#g)"/>
  <rect x="17" y="4" width="3" height="3" rx="0.5" fill="#8b5cf6"/>
  <rect x="22" y="4" width="3" height="3" rx="0.5" fill="#8b5cf6"/>
  <rect x="17" y="9" width="3" height="3" rx="0.5" fill="#c4b5fd"/>
  <rect x="22" y="9" width="3" height="3" rx="0.5" fill="#8b5cf6"/>
  <rect x="17" y="14" width="3" height="3" rx="0.5" fill="#8b5cf6"/>
  <rect x="22" y="14" width="3" height="3" rx="0.5" fill="#c4b5fd"/>
  <rect x="4" y="17" width="3" height="3" rx="0.5" fill="#8b5cf6"/>
  <rect x="9" y="17" width="3" height="3" rx="0.5" fill="#c4b5fd"/>
  <rect x="4" y="22" width="3" height="3" rx="0.5" fill="#8b5cf6"/>
  <rect x="9" y="22" width="3" height="3" rx="0.5" fill="#8b5cf6"/>
  <rect x="20" y="20" width="8" height="8" rx="1" fill="none" stroke="#6d28d9" stroke-width="1" opacity="0.8"/>
  <rect x="22" y="22" width="4" height="4" rx="0.5" fill="#6d28d9" opacity="0.9"/>
</svg>
